<svg id="Layer_1" data-name="Layer 1" xmlns="http://www.w3.org/2000/svg" viewBox="0 0 453.12 267.95"><defs><style>.cls-1{fill:none;stroke:#231f20;stroke-miterlimit:22.93;stroke-width:0.22px;}.cls-2,.cls-3{fill:#ed1c24;}.cls-2,.cls-5{fill-rule:evenodd;}.cls-4{fill:#fff;}.cls-5{fill:#d1d3d4;}</style></defs><title>hansens red (1)</title><rect x="0.11" y="0.11" width="452.9" height="267.73"/><rect class="cls-1" x="0.11" y="0.11" width="452.9" height="267.73"/><path class="cls-2" d="M482.41,609.86l11.2,12.25-40,55.07-.84-.73,37.27-54.22-7-8,2.84.81Zm-10.84,11-85.85-19.24-49.54,38.66,18.77-.07L385.18,609l-8.54,11.86,13.16-13.63L471,622.36Zm4.73-6.78-29.7-4.82-.11,1.07-34.38-4.93,61.75,14.28ZM453,681.74l-3.88,4.72s1.34,4.63,2.65,9.27l7.77-7.77Zm10,4.35,6.76-14.26-.92-.39,11.23-25-1.47-.23-23.3,32.45Zm-16.19-79,30.59,4.49,3-6.93,15.65,17.21-8.81,12.27,2.08,3.09L473,673.17l-1.26-.52-7.47,14.67,1.31,1.26s-9.58,10-12.32,12.51c.39,1.43.7,2.61.86,3.31.77,3.39-2,7.4-6.77,9.63s-14.39.23-14.39.23l-24.15-8-8.31-8.7,7.31.54,14-7.55L429,691.7l14.23-9,25-50.15-79.48-11.07L371,642.87l-48.7,1.69L385.45,599l5.5,1.42,4.12-4.93,6.53.93,2.23,2.92L447,605.67Z" transform="translate(-76.91 -513.18)"/><polygon class="cls-2" points="341.2 127.38 339.12 134.46 65.49 134.46 341.2 127.38"/><path class="cls-3" d="M224.89,701.88h-93.6a7.89,7.89,0,0,0-7.87,7.88h0a7.89,7.89,0,0,0,7.87,7.87h93.6a7.89,7.89,0,0,0,7.88-7.87h0a7.89,7.89,0,0,0-7.88-7.88m-93.6-1.42h93.6a9.32,9.32,0,0,1,9.3,9.3h0a9.32,9.32,0,0,1-9.3,9.29h-93.6a9.32,9.32,0,0,1-9.29-9.29h0a9.32,9.32,0,0,1,9.29-9.3Z" transform="translate(-76.91 -513.18)"/><path class="cls-2" d="M179,703.76a6.19,6.19,0,0,1,1.56.42l.43-.74,1.37.79L182,705a6.21,6.21,0,0,1,1.14,1.15l.74-.43.79,1.36-.75.43a6,6,0,0,1,.42,1.57h.86v1.58h-.86a6.32,6.32,0,0,1-.43,1.56l.75.43-.79,1.36-.75-.43a5.91,5.91,0,0,1-1.15,1.14l.43.75-1.36.79-.43-.75a6,6,0,0,1-1.57.42v.86h-1.58v-.86a5.9,5.9,0,0,1-1.56-.42l-.43.74-1.37-.79.44-.74a6.26,6.26,0,0,1-1.15-1.15l-.74.43-.79-1.37.75-.43a5.8,5.8,0,0,1-.42-1.56h-.86V709h.87a5.8,5.8,0,0,1,.42-1.56l-.74-.43.78-1.37.75.43a6.21,6.21,0,0,1,1.15-1.14l-.43-.74,1.37-.79.43.74a6.18,6.18,0,0,1,1.56-.41v-.86H179Z" transform="translate(-76.91 -513.18)"/><path class="cls-2" d="M132.4,703.76a6.38,6.38,0,0,1,1.57.42l.42-.74,1.37.79-.43.75a5.92,5.92,0,0,1,1.14,1.15l.74-.43.79,1.36-.74.43a6.37,6.37,0,0,1,.41,1.57h.86v1.58h-.86a6.31,6.31,0,0,1-.42,1.56l.74.43L137.2,714l-.75-.43a5.65,5.65,0,0,1-1.15,1.14l.44.75-1.37.79-.43-.75a5.87,5.87,0,0,1-1.57.42v.86H130.8v-.86a5.87,5.87,0,0,1-1.57-.42l-.43.74-1.36-.79.43-.74a6.21,6.21,0,0,1-1.14-1.15L126,714l-.79-1.37.75-.43a6.19,6.19,0,0,1-.42-1.56h-.85V709h.86a5.8,5.8,0,0,1,.42-1.56l-.74-.43.79-1.37.74.43a6.21,6.21,0,0,1,1.15-1.14l-.43-.74,1.37-.79.43.74a6.29,6.29,0,0,1,1.56-.41v-.86h1.58Z" transform="translate(-76.91 -513.18)"/><path class="cls-2" d="M225.62,703.76a6.31,6.31,0,0,1,1.56.42l.43-.74,1.36.79-.43.75a6,6,0,0,1,1.15,1.15l.74-.43.79,1.36-.75.43a6,6,0,0,1,.42,1.57h.86v1.58h-.86a5.9,5.9,0,0,1-.42,1.56l.74.43-.79,1.36-.74-.43a5.91,5.91,0,0,1-1.15,1.14l.43.75-1.37.79-.43-.75a5.8,5.8,0,0,1-1.56.42v.86H224v-.86a5.8,5.8,0,0,1-1.56-.42l-.43.74-1.37-.79.43-.74a6.53,6.53,0,0,1-1.14-1.15l-.74.43-.79-1.37.75-.43a5.8,5.8,0,0,1-.42-1.56h-.86V709h.86a6.2,6.2,0,0,1,.43-1.56l-.75-.43.79-1.37.75.43a5.92,5.92,0,0,1,1.15-1.14l-.43-.74,1.36-.79.43.74a6.37,6.37,0,0,1,1.57-.41v-.86h1.58Z" transform="translate(-76.91 -513.18)"/><rect class="cls-3" x="100.51" y="186.62" width="1.69" height="1.08"/><rect class="cls-3" x="93.86" y="186.62" width="1.69" height="1.08"/><rect class="cls-3" x="87.2" y="186.62" width="1.69" height="1.08"/><rect class="cls-3" x="80.55" y="186.62" width="1.69" height="1.08"/><rect class="cls-3" x="73.9" y="186.62" width="1.69" height="1.08"/><rect class="cls-3" x="67.24" y="186.62" width="1.69" height="1.08"/><rect class="cls-3" x="60.59" y="186.62" width="1.69" height="1.08"/><rect class="cls-3" x="53.93" y="186.62" width="1.69" height="1.08"/><rect class="cls-3" x="107.28" y="186.62" width="1.69" height="1.08"/><rect class="cls-3" x="114.05" y="186.62" width="1.69" height="1.08"/><rect class="cls-3" x="120.82" y="186.62" width="1.69" height="1.08"/><rect class="cls-3" x="127.59" y="186.62" width="1.69" height="1.08"/><rect class="cls-3" x="134.36" y="186.62" width="1.69" height="1.08"/><rect class="cls-3" x="141.12" y="186.62" width="1.69" height="1.08"/><rect class="cls-3" x="147.89" y="186.62" width="1.69" height="1.08"/><rect class="cls-3" x="100.49" y="205.47" width="1.69" height="1.08"/><rect class="cls-3" x="93.84" y="205.47" width="1.69" height="1.08"/><rect class="cls-3" x="87.18" y="205.47" width="1.69" height="1.08"/><rect class="cls-3" x="80.53" y="205.47" width="1.69" height="1.08"/><rect class="cls-3" x="73.88" y="205.47" width="1.69" height="1.08"/><rect class="cls-3" x="67.22" y="205.47" width="1.69" height="1.08"/><rect class="cls-3" x="60.57" y="205.47" width="1.69" height="1.08"/><rect class="cls-3" x="53.91" y="205.47" width="1.69" height="1.08"/><rect class="cls-3" x="107.26" y="205.47" width="1.69" height="1.08"/><rect class="cls-3" x="114.03" y="205.47" width="1.69" height="1.08"/><rect class="cls-3" x="120.8" y="205.47" width="1.69" height="1.08"/><rect class="cls-3" x="127.57" y="205.47" width="1.69" height="1.08"/><rect class="cls-3" x="134.34" y="205.47" width="1.69" height="1.08"/><rect class="cls-3" x="141.1" y="205.47" width="1.69" height="1.08"/><rect class="cls-3" x="147.87" y="205.47" width="1.69" height="1.08"/><rect class="cls-3" x="44.61" y="195.65" width="1.08" height="1.69"/><rect class="cls-3" x="156.99" y="195.77" width="1.08" height="1.69"/><path class="cls-4" d="M382.45,678.53h9.26c-.33,1.82,0,3.2,1,4.12s2.63,1.38,4.94,1.38a11.46,11.46,0,0,0,4.73-.83,3.41,3.41,0,0,0,2.13-2.33,2.29,2.29,0,0,0-.08-1.36,1.79,1.79,0,0,0-.89-.89,30.66,30.66,0,0,0-4.81-1.5q-3.86-1-6.47-2a11.07,11.07,0,0,1-5.37-3.63,6.29,6.29,0,0,1-.95-5.24,11.12,11.12,0,0,1,5.67-7.3,22.77,22.77,0,0,1,11.59-2.7q6.8,0,10.16,2.85t2.29,7.69h-9.08a3.57,3.57,0,0,0-1.12-3.3,6.75,6.75,0,0,0-4.24-1.07,8.74,8.74,0,0,0-4,.82,3.21,3.21,0,0,0-1.92,2.07q-.46,2.13,6.05,4l1.8.52.35.11c4.49,1.31,7.24,2.38,8.26,3.19a6.56,6.56,0,0,1,2.11,3,7.13,7.13,0,0,1,.1,3.8,11.07,11.07,0,0,1-6,7.44q-4.9,2.65-12.68,2.66-7.35,0-10.55-2.85t-2.35-8.67m-4.88-20.63h5.61l-2.7,12.2h-5.61Zm-45.3,31.26,7.09-32H349.8l4.78,10.52c.79,1.71,1.51,3.41,2.18,5.09s1.28,3.34,1.84,5q.6-3.63,1.2-6.81c.4-2.11.78-4,1.13-5.59l1.82-8.19h9.31l-7.09,32H354.56l-5-10.83q-.88-1.91-1.89-4.28t-2.11-5.15c-.28,2.09-.57,4-.89,5.83s-.62,3.39-.92,4.78l-2.14,9.65Zm-34.94,0,7.08-32h28.64l-1.46,6.57h-19l-1.25,5.65H328.7l-1.42,6.41H309.93l-1.52,6.85H328l-1.45,6.54Zm-35.21-10.63h9.27c-.34,1.82,0,3.2,1,4.12S275,684,277.31,684a11.4,11.4,0,0,0,4.73-.83,3.41,3.41,0,0,0,2.13-2.33,2.15,2.15,0,0,0-.08-1.36,1.73,1.73,0,0,0-.88-.89,31.46,31.46,0,0,0-4.81-1.5q-3.87-1-6.47-2a11.1,11.1,0,0,1-5.38-3.63,6.29,6.29,0,0,1-.95-5.24,11.12,11.12,0,0,1,5.67-7.3,22.8,22.8,0,0,1,11.59-2.7c4.54,0,7.92,1,10.17,2.85s3,4.46,2.28,7.69h-9.08a3.55,3.55,0,0,0-1.12-3.3,6.73,6.73,0,0,0-4.23-1.07,8.76,8.76,0,0,0-4,.82,3.19,3.19,0,0,0-1.91,2.07c-.32,1.42,1.7,2.76,6,4l1.81.52.35.11c4.48,1.31,7.23,2.38,8.25,3.19a6.49,6.49,0,0,1,2.11,3,7,7,0,0,1,.1,3.8,11,11,0,0,1-6,7.44Q282.81,690,275,690.05q-7.35,0-10.56-2.85T262.12,678.53Zm-40.68,10.63,7.09-32H239l4.79,10.52q1.17,2.57,2.18,5.09t1.84,5c.39-2.42.8-4.69,1.2-6.81s.77-4,1.13-5.59l1.81-8.19h9.31l-7.09,32H243.72l-5-10.83c-.59-1.27-1.21-2.7-1.88-4.28s-1.39-3.31-2.11-5.15c-.28,2.09-.57,4-.89,5.83s-.62,3.39-.93,4.78l-2.14,9.65Zm-20.41-32h10.54l6.21,32H207.42l-1-5.87H193.83l-3.45,5.87h-10Zm-3.43,19.52h8.24l-1.75-11Zm-53.55,12.5,7.09-32h9.69l-2.51,11.37h13.2L174,657.14h9.69l-7.09,32H167l3-13.5H156.73l-3,13.5Z" transform="translate(-76.91 -513.18)"/><path class="cls-5" d="M400.28,670.51c-2.56-.77-7-2.41-6.34-5.48a4.61,4.61,0,0,1,2.67-3,10.25,10.25,0,0,1,4.59-1,8.2,8.2,0,0,1,5.13,1.39,4.43,4.43,0,0,1,1.61,3h6.5a5.59,5.59,0,0,0-2-5.19c-2.44-2.07-6.18-2.52-9.25-2.52a21.61,21.61,0,0,0-10.88,2.52,9.74,9.74,0,0,0-5,6.38,4.91,4.91,0,0,0,.72,4.11l.11.15Z" transform="translate(-76.91 -513.18)"/><polygon class="cls-5" points="301.8 146.13 299.73 155.5 302.43 155.5 304.5 146.13 301.8 146.13"/><path class="cls-5" d="M367.45,671.4l2.84-12.84h-6.41l-1.56,7.08c-.41,1.84-.78,3.69-1.13,5.54l-.07.39Zm-18.57-12.84H340.5l-3,13.64,6.2-.17c.17-1.1.33-2.21.47-3.31l.72-5.4,2,5.06c.46,1.18.94,2.36,1.43,3.53l6.51-.18q-.74-1.76-1.53-3.48Z" transform="translate(-76.91 -513.18)"/><polygon class="cls-5" points="249.65 159.31 250.03 157.6 232.68 157.6 234.55 149.11 253.55 149.11 254.37 145.38 228.64 145.38 225.41 159.96 249.65 159.31"/><path class="cls-5" d="M289.15,673.5a58.21,58.21,0,0,0-6.35-2.15h0l-.33-.11-1.8-.51c-2.32-.68-7.77-2.32-7-5.69a4.61,4.61,0,0,1,2.67-3,10.26,10.26,0,0,1,4.6-1,8.19,8.19,0,0,1,5.12,1.39,4.48,4.48,0,0,1,1.62,3h6.49a5.59,5.59,0,0,0-2-5.19c-2.44-2.07-6.18-2.52-9.25-2.52A21.63,21.63,0,0,0,272,660.2a9.7,9.7,0,0,0-5,6.38,4.87,4.87,0,0,0,.72,4.11,10,10,0,0,0,4.7,3.12l.37.13Z" transform="translate(-76.91 -513.18)"/><path class="cls-5" d="M256,674.39l3.51-15.83h-6.41l-1.57,7.08q-.6,2.76-1.12,5.54c-.21,1.13-.42,2.25-.62,3.38Zm-17.9-15.83h-8.39L226,675.19l6.37-.17.09-.54c.34-1.91.62-3.84.88-5.76l.72-5.4,2,5.06c.68,1.71,1.38,3.42,2.1,5.11.19.46.39.91.58,1.36l6.44-.17-.55-1.41q-1-2.53-2.15-5Z" transform="translate(-76.91 -513.18)"/><polygon class="cls-5" points="124.89 145.38 113.55 162.97 119.44 162.81 127.96 148.31 130.22 162.52 136.78 162.34 133.49 145.38 124.89 145.38"/><polygon class="cls-5" points="78.05 163.92 78.69 161.06 94.79 161.06 94.26 163.49 101.09 163.3 105.06 145.38 98.27 145.38 95.75 156.75 79.64 156.75 82.16 145.38 75.37 145.38 71.22 164.1 78.05 163.92"/><path class="cls-4" d="M382.29,717.16a9.73,9.73,0,0,0,2.48-.32,9.63,9.63,0,0,0,2.08-.84,10.62,10.62,0,0,0,1.7-1.17v-6.36h-6.37v2.78h3.25v2.1A4.69,4.69,0,0,1,384,714a6.21,6.21,0,0,1-1.65.22,4.72,4.72,0,0,1-1.79-.35,4.19,4.19,0,0,1-1.4-1,4.46,4.46,0,0,1-.92-1.47,5.34,5.34,0,0,1-.33-1.86v0a4.93,4.93,0,0,1,.33-1.77,4.6,4.6,0,0,1,.9-1.45,4.06,4.06,0,0,1,3-1.35,5.71,5.71,0,0,1,1.5.18,5,5,0,0,1,1.21.5,9,9,0,0,1,1.12.81l2-2.45a9.22,9.22,0,0,0-1.17-.86,7,7,0,0,0-1.29-.63,8.22,8.22,0,0,0-1.5-.39,12.27,12.27,0,0,0-1.8-.13,7.84,7.84,0,0,0-2.5.39,7.32,7.32,0,0,0-2.12,1.08,7.5,7.5,0,0,0-2.69,3.72,7.86,7.86,0,0,0-.37,2.39v0a7.89,7.89,0,0,0,.56,3,7,7,0,0,0,1.58,2.39,7.09,7.09,0,0,0,2.44,1.58,8.68,8.68,0,0,0,3.13.57m-24.71-.25h3.18v-9.32l7.1,9.32h2.74V702.25h-3.18v9l-6.86-9h-3Zm-8,0h3.22V702.25h-3.22Zm-11.41,0h3.22V705.22h4.46v-3H333.72v3h4.46Zm-14.66-6.14,2-4.75,1.95,4.75Zm-5.78,6.14H321l1.34-3.29h6.2l1.34,3.29h3.37L327,702.15h-3ZM309,717h2.85l5.92-14.76h-3.47l-3.83,10.32-3.83-10.32H303Zm-15.7-6.24L295.2,706l1.95,4.75Zm-5.78,6.14h3.29l1.34-3.29h6.2l1.34,3.29H303l-6.28-14.76h-3Zm-8.43.25A10.27,10.27,0,0,0,281,717a7.52,7.52,0,0,0,1.58-.53,6.7,6.7,0,0,0,1.33-.82,10.88,10.88,0,0,0,1.18-1.09L283,712.47a10,10,0,0,1-1.13.91,5,5,0,0,1-1.23.59,4.87,4.87,0,0,1-1.49.21,4,4,0,0,1-3.07-1.36,4.76,4.76,0,0,1-.87-1.46,5.5,5.5,0,0,1-.31-1.78v0a5.16,5.16,0,0,1,.32-1.78,4.55,4.55,0,0,1,.88-1.45,4.09,4.09,0,0,1,3.05-1.34,4.68,4.68,0,0,1,1.37.2,5.27,5.27,0,0,1,1.23.57,8.28,8.28,0,0,1,1.15.89l2.05-2.37a8.15,8.15,0,0,0-1.49-1.18,6.82,6.82,0,0,0-1.86-.79,9.3,9.3,0,0,0-2.43-.29,7.92,7.92,0,0,0-2.52.39,7.37,7.37,0,0,0-3.73,2.72,7.62,7.62,0,0,0-1,2.08,7.86,7.86,0,0,0-.36,2.39v0a7.88,7.88,0,0,0,.37,2.4,7.56,7.56,0,0,0,1,2.07,7.32,7.32,0,0,0,1.61,1.63,7.5,7.5,0,0,0,2.07,1.06A8,8,0,0,0,279,717.16Zm-23.37-.25h3.67l3.31-5,3.28,5h3.77l-5.11-7.5,4.9-7.16h-3.66L262.71,707l-3.06-4.75h-3.77l4.9,7.2Zm-14,0h11.16V714h-8V711h6.91v-2.87h-6.91v-3h7.85v-2.87h-11Z" transform="translate(-76.91 -513.18)"/></svg>